<svg width="200" height="200" viewBox="0 0 200 200" fill="none" xmlns="http://www.w3.org/2000/svg">
<rect width="200" height="200" rx="20" fill="white"/>
<path d="M126.897 73.1674L115.466 107.451C114.844 109.318 113.796 111.014 112.405 112.405C111.014 113.796 109.318 114.844 107.451 115.466L73.1674 126.897L84.5975 92.6125C85.2196 90.7461 86.2677 89.0501 87.6589 87.6589C89.0501 86.2677 90.7461 85.2196 92.6125 84.5975L126.897 73.1674Z" stroke="black" stroke-width="10" stroke-linecap="round" stroke-linejoin="round"/>
<path d="M100.032 163.392C135.025 163.392 163.392 135.025 163.392 100.032C163.392 65.0392 135.025 36.672 100.032 36.672C65.0392 36.672 36.672 65.0392 36.672 100.032C36.672 135.025 65.0392 163.392 100.032 163.392Z" stroke="black" stroke-width="10" stroke-linecap="round" stroke-linejoin="round"/>
</svg>
